<svg width="124" height="42" viewBox="0 0 124 42" fill="none" xmlns="http://www.w3.org/2000/svg">
<path d="M3.33559 11.3104H6.50877L11.1811 24.6653L15.8534 11.3104H19.0266L12.4554 29.5H9.90682L3.33559 11.3104ZM1.62407 11.3104H4.78476L5.35943 24.328V29.5H1.62407V11.3104ZM17.5774 11.3104H20.7506V29.5H17.0027V24.328L17.5774 11.3104ZM27.8215 27.9759L31.407 15.9828H35.2673L29.8329 31.5363C29.7163 31.8778 29.558 32.2443 29.3582 32.6357C29.1666 33.0271 28.9043 33.3978 28.5711 33.7476C28.2463 34.1057 27.834 34.3972 27.3343 34.6221C26.8429 34.8469 26.2391 34.9594 25.5229 34.9594C25.1814 34.9594 24.9024 34.9385 24.6858 34.8969C24.4693 34.8553 24.2111 34.797 23.9113 34.722V32.086C24.0029 32.086 24.0987 32.086 24.1986 32.086C24.2986 32.0943 24.3943 32.0985 24.486 32.0985C24.9607 32.0985 25.348 32.0444 25.6478 31.9361C25.9476 31.8278 26.1891 31.6613 26.3724 31.4364C26.5556 31.2198 26.7014 30.9367 26.8096 30.5869L27.8215 27.9759ZM26.3224 15.9828L29.2582 25.7771L29.7704 29.5874L27.3218 29.8498L22.4621 15.9828H26.3224ZM50.4211 21.5171H45.7488L45.7238 18.9436H49.6465C50.3378 18.9436 50.9041 18.8561 51.3455 18.6812C51.787 18.498 52.1159 18.2356 52.3325 17.8942C52.5574 17.5444 52.6698 17.1196 52.6698 16.6199C52.6698 16.0535 52.5615 15.5955 52.345 15.2457C52.1368 14.8959 51.8078 14.6419 51.358 14.4836C50.9166 14.3254 50.3461 14.2462 49.6465 14.2462H47.048V29.5H43.3002V11.3104H49.6465C50.7042 11.3104 51.6495 11.4104 52.4824 11.6103C53.3236 11.8101 54.0357 12.1141 54.6187 12.5222C55.2017 12.9303 55.6472 13.4467 55.9554 14.0713C56.2636 14.6877 56.4176 15.4206 56.4176 16.2701C56.4176 17.0197 56.2469 17.7109 55.9054 18.3439C55.5723 18.9769 55.0434 19.4932 54.3188 19.893C53.6026 20.2928 52.6656 20.5135 51.508 20.5551L50.4211 21.5171ZM50.2587 29.5H44.7243L46.186 26.5767H50.2587C50.9166 26.5767 51.4538 26.4726 51.8702 26.2644C52.2867 26.0478 52.5948 25.7563 52.7947 25.3899C52.9946 25.0234 53.0945 24.6028 53.0945 24.1281C53.0945 23.5951 53.0029 23.1328 52.8197 22.7414C52.6448 22.3499 52.3616 22.0501 51.9702 21.8419C51.5787 21.6253 51.0624 21.5171 50.4211 21.5171H46.8106L46.8356 18.9436H51.3331L52.1951 19.9555C53.3028 19.9388 54.1939 20.1345 54.8685 20.5426C55.5515 20.9424 56.047 21.4629 56.3552 22.1042C56.6717 22.7455 56.8299 23.4326 56.8299 24.1656C56.8299 25.3316 56.5759 26.3143 56.0678 27.1139C55.5598 27.9051 54.8144 28.5006 53.8316 28.9003C52.8572 29.3001 51.6662 29.5 50.2587 29.5ZM67.4113 26.2644V15.9828H71.0093V29.5H67.6237L67.4113 26.2644ZM67.8111 23.4909L68.873 23.466C68.873 24.3654 68.7689 25.2025 68.5607 25.977C68.3525 26.7432 68.0401 27.4095 67.6237 27.9759C67.2073 28.5339 66.6826 28.9711 66.0496 29.2876C65.4166 29.5958 64.6712 29.7499 63.8134 29.7499C63.1554 29.7499 62.5475 29.6582 61.9894 29.475C61.4398 29.2835 60.965 28.9878 60.5653 28.588C60.1738 28.1799 59.8657 27.6594 59.6408 27.0264C59.4242 26.3851 59.316 25.6147 59.316 24.7152V15.9828H62.9139V24.7402C62.9139 25.14 62.9597 25.4773 63.0513 25.7521C63.1513 26.027 63.2887 26.2519 63.4636 26.4268C63.6385 26.6017 63.8425 26.7266 64.0757 26.8015C64.3173 26.8765 64.5838 26.914 64.8753 26.914C65.6165 26.914 66.1995 26.7641 66.6243 26.4642C67.0574 26.1644 67.3614 25.7563 67.5363 25.2399C67.7195 24.7152 67.8111 24.1322 67.8111 23.4909ZM81.7406 26.5517V10.311H85.3635V29.5H82.1029L81.7406 26.5517ZM73.1955 22.9038V22.6414C73.1955 21.6087 73.3121 20.6717 73.5453 19.8305C73.7785 18.981 74.12 18.2523 74.5697 17.6443C75.0195 17.0363 75.5733 16.5658 76.2313 16.2326C76.8892 15.8995 77.6388 15.7329 78.48 15.7329C79.2712 15.7329 79.9625 15.8995 80.5538 16.2326C81.1535 16.5658 81.6615 17.0405 82.0779 17.6568C82.5027 18.2648 82.8442 18.9852 83.1023 19.8181C83.3605 20.6426 83.5479 21.5462 83.6645 22.529V23.1037C83.5479 24.0448 83.3605 24.9193 83.1023 25.7272C82.8442 26.535 82.5027 27.243 82.0779 27.8509C81.6615 28.4506 81.1535 28.917 80.5538 29.2501C79.9541 29.5833 79.2545 29.7499 78.455 29.7499C77.6138 29.7499 76.8642 29.5791 76.2063 29.2377C75.5567 28.8962 75.007 28.4173 74.5572 27.801C74.1158 27.1847 73.7785 26.4601 73.5453 25.6272C73.3121 24.7944 73.1955 23.8866 73.1955 22.9038ZM76.7935 22.6414V22.9038C76.7935 23.4618 76.8351 23.9823 76.9184 24.4654C77.01 24.9484 77.1557 25.3774 77.3556 25.7521C77.5638 26.1186 77.8304 26.4059 78.1552 26.6142C78.4883 26.814 78.8923 26.914 79.367 26.914C79.9833 26.914 80.4913 26.7766 80.8911 26.5017C81.2909 26.2185 81.5949 25.8313 81.8031 25.3399C82.0196 24.8485 82.1446 24.2822 82.1779 23.6409V22.0043C82.1529 21.4796 82.0779 21.009 81.953 20.5926C81.8364 20.1679 81.6615 19.8056 81.4283 19.5057C81.2034 19.2059 80.9203 18.9727 80.5788 18.8061C80.2456 18.6396 79.85 18.5563 79.392 18.5563C78.9256 18.5563 78.5258 18.6645 78.1927 18.8811C77.8595 19.0893 77.5888 19.3766 77.3806 19.7431C77.1807 20.1096 77.0308 20.5426 76.9309 21.0424C76.8393 21.5337 76.7935 22.0668 76.7935 22.6414ZM96.732 15.9828H99.9926V29.0503C99.9926 30.2829 99.7178 31.3281 99.1681 32.186C98.6268 33.0521 97.8689 33.7059 96.8944 34.1473C95.92 34.5971 94.7873 34.8219 93.4964 34.8219C92.93 34.8219 92.3304 34.747 91.6974 34.5971C91.0728 34.4472 90.4731 34.214 89.8984 33.8975C89.3321 33.581 88.8574 33.1812 88.4743 32.6982L90.0608 30.5744C90.4773 31.0574 90.9603 31.4322 91.51 31.6987C92.0597 31.9736 92.6677 32.111 93.334 32.111C93.9836 32.111 94.5333 31.9902 94.983 31.7487C95.4328 31.5155 95.7784 31.1699 96.0199 30.7118C96.2615 30.2621 96.3822 29.7165 96.3822 29.0752V19.106L96.732 15.9828ZM87.6372 22.9038V22.6414C87.6372 21.6087 87.7622 20.6717 88.012 19.8305C88.2702 18.981 88.6325 18.2523 89.0989 17.6443C89.5736 17.0363 90.1483 16.5658 90.8229 16.2326C91.4975 15.8995 92.2596 15.7329 93.1091 15.7329C94.0086 15.7329 94.7623 15.8995 95.3703 16.2326C95.9783 16.5658 96.478 17.0405 96.8694 17.6568C97.2609 18.2648 97.5649 18.9852 97.7814 19.8181C98.0063 20.6426 98.1812 21.5462 98.3061 22.529V23.1037C98.1812 24.0448 97.9938 24.9193 97.7439 25.7272C97.4941 26.535 97.1651 27.243 96.757 27.8509C96.3489 28.4506 95.8409 28.917 95.2329 29.2501C94.6332 29.5833 93.917 29.7499 93.0841 29.7499C92.2513 29.7499 91.4975 29.5791 90.8229 29.2377C90.1566 28.8962 89.5861 28.4173 89.1114 27.801C88.6367 27.1847 88.2702 26.4601 88.012 25.6272C87.7622 24.7944 87.6372 23.8866 87.6372 22.9038ZM91.2352 22.6414V22.9038C91.2352 23.4618 91.2893 23.9823 91.3976 24.4654C91.5059 24.9484 91.6724 25.3774 91.8973 25.7521C92.1305 26.1186 92.4178 26.4059 92.7593 26.6142C93.1091 26.814 93.5214 26.914 93.9961 26.914C94.654 26.914 95.1912 26.7766 95.6077 26.5017C96.0241 26.2185 96.3364 25.8313 96.5446 25.3399C96.7528 24.8485 96.8736 24.2822 96.9069 23.6409V22.0043C96.8903 21.4796 96.8195 21.009 96.6945 20.5926C96.5696 20.1679 96.3947 19.8056 96.1698 19.5057C95.945 19.2059 95.6535 18.9727 95.2953 18.8061C94.9372 18.6396 94.5125 18.5563 94.0211 18.5563C93.5463 18.5563 93.1341 18.6645 92.7843 18.8811C92.4428 19.0893 92.1555 19.3766 91.9223 19.7431C91.6974 20.1096 91.5267 20.5426 91.4101 21.0424C91.2935 21.5337 91.2352 22.0668 91.2352 22.6414ZM109.012 29.7499C107.963 29.7499 107.022 29.5833 106.189 29.2501C105.356 28.9087 104.648 28.4381 104.065 27.8385C103.491 27.2388 103.049 26.5434 102.741 25.7521C102.433 24.9526 102.279 24.1031 102.279 23.2036V22.7039C102.279 21.6795 102.425 20.7425 102.716 19.893C103.008 19.0435 103.424 18.3064 103.965 17.6818C104.515 17.0571 105.181 16.5782 105.964 16.2451C106.747 15.9036 107.63 15.7329 108.613 15.7329C109.57 15.7329 110.42 15.8911 111.161 16.2076C111.902 16.5241 112.523 16.9739 113.023 17.5569C113.531 18.1398 113.914 18.8394 114.172 19.6556C114.43 20.4635 114.559 21.363 114.559 22.3541V23.8532H103.815V21.4546H111.024V21.1798C111.024 20.6801 110.932 20.2345 110.749 19.843C110.574 19.4433 110.308 19.1268 109.949 18.8936C109.591 18.6604 109.133 18.5438 108.575 18.5438C108.1 18.5438 107.692 18.6479 107.351 18.8561C107.009 19.0643 106.73 19.3558 106.514 19.7306C106.306 20.1054 106.147 20.5468 106.039 21.0548C105.939 21.5546 105.889 22.1042 105.889 22.7039V23.2036C105.889 23.745 105.964 24.2447 106.114 24.7028C106.272 25.1608 106.493 25.5564 106.776 25.8896C107.068 26.2227 107.418 26.4809 107.826 26.6641C108.242 26.8474 108.713 26.939 109.237 26.939C109.887 26.939 110.491 26.814 111.049 26.5642C111.615 26.306 112.102 25.9187 112.51 25.4024L114.259 27.3013C113.976 27.7094 113.589 28.1008 113.098 28.4756C112.615 28.8504 112.032 29.1585 111.349 29.4001C110.666 29.6333 109.887 29.7499 109.012 29.7499ZM123.229 15.9828V18.5313H115.359V15.9828H123.229ZM117.308 12.6472H120.906V25.4273C120.906 25.8188 120.956 26.1186 121.056 26.3268C121.164 26.535 121.322 26.6808 121.53 26.7641C121.739 26.839 122.001 26.8765 122.317 26.8765C122.542 26.8765 122.742 26.8682 122.917 26.8515C123.1 26.8265 123.254 26.8015 123.379 26.7766L123.392 29.425C123.084 29.525 122.75 29.6041 122.392 29.6624C122.034 29.7207 121.639 29.7499 121.205 29.7499C120.414 29.7499 119.723 29.6208 119.132 29.3626C118.549 29.0961 118.099 28.6713 117.782 28.0883C117.466 27.5053 117.308 26.7391 117.308 25.7896V12.6472Z" fill="#E1E1E6"/>
</svg>

